<svg width="88" height="35" viewBox="0 0 88 35" fill="none" xmlns="http://www.w3.org/2000/svg">
<g filter="url(#filter0_d_1922_2279)">
<path d="M34.7208 22.851C31.744 20.9334 27.7041 20.5969 21.1889 22.4045C14.2432 24.0367 11.9274 25.083 8.88612 22.9826C7.71772 21.9508 7.29882 20.2895 7.61162 17.8965C8.33712 13.9955 10.2977 10.2414 13.7803 6.07717C15.7241 3.91097 17.5273 2.05197 19.9082 1.30547C21.733 0.837172 21.5624 2.27127 21.3416 2.47637C21.1086 2.47637 20.7172 2.51307 20.4147 2.71047C20.1692 2.90087 19.4953 3.51567 19.4591 4.34267C19.4069 5.60867 20.717 5.34517 21.2821 4.65007C21.8912 3.86677 22.7914 2.36677 22.0833 0.968772C21.7865 0.471172 21.2737 0.127272 20.637 0.010172C18.4568 -0.114428 16.4264 0.924872 14.5524 2.07387C10.4542 4.92077 7.17592 8.86557 5.32092 13.1836C4.25152 15.7889 3.28432 19.5209 4.73402 22.5584C5.85562 24.666 8.18392 25.7855 10.9618 25.5514C12.9101 25.3467 15.266 24.717 16.8505 24.3368C18.4351 23.9559 26.5459 21.1679 29.2109 26.0204C29.2109 26.0204 30.0971 24.3001 32.3118 24.2634C34.1326 24.0954 36.7594 24.7905 38.6722 26.1954C38.0349 25.237 36.2281 23.8245 34.7208 22.851Z" fill="#E61A27"/>
<path d="M22.0159 6.56745C20.4989 5.57215 17.4499 7.47495 15.0078 10.7389C12.7746 13.6666 11.8103 17.0693 12.8598 18.6428C14.4208 20.4943 17.3189 17.8012 18.5513 16.3597L18.7103 16.1912C19.5484 15.291 20.1958 14.2078 20.8226 13.1684C20.8226 13.1684 21.3986 12.217 21.4261 12.173C21.7821 12.1074 22.2109 12.0049 22.6941 11.8658C22.6872 11.8876 20.8454 14.9834 21.0333 16.52C21.0918 16.9888 21.0472 18.7013 22.7191 19.2208C24.9475 19.5943 26.7269 17.8669 28.2967 16.33C28.2967 16.33 28.5642 16.0741 28.7155 15.928C28.6772 16.0812 28.6273 16.2857 28.6273 16.2857C27.9749 18.5545 28.8543 19.0306 29.4044 19.2062C31.0669 19.6896 33.053 17.2743 33.0595 17.2743C33.0079 18.0351 32.8574 18.6644 33.6594 19.1695C34.4163 19.4405 35.1824 19.0273 35.7648 18.6394C37.8623 17.1612 39.5521 14.8474 40.9169 12.8475H40.0463C40.036 12.8475 37.8981 15.9463 36.5098 16.6198C36.5076 16.6198 36.2549 16.7495 36.1094 16.6469C35.9291 16.4932 36.0002 16.1735 36.1115 15.9471C36.1185 15.9324 41.4719 6.64745 41.4719 6.64745H38.9443C38.9443 6.64745 38.6682 7.09415 38.6457 7.12345C38.6287 7.10885 38.5882 7.03205 38.5602 6.99525C36.9942 4.82905 33.4479 8.16105 30.778 12.0251C29.7501 13.5109 28.4414 15.1838 27.0844 16.3913C27.0844 16.3913 25.074 18.2341 24.2151 16.9101C23.9011 16.3538 23.9977 15.5405 24.1748 15.0064C25.1749 12.1594 26.8982 9.57565 28.8593 8.01675C29.4128 7.58525 30.0146 7.46045 30.3131 7.64345C30.5977 7.81205 30.6436 8.22885 30.4636 8.51435C30.0069 8.49975 29.6409 8.63855 29.3435 8.94595C28.7575 9.56075 28.5539 10.1537 28.7402 10.71C29.6453 11.998 31.4504 9.45105 31.3631 7.89955C31.3319 7.34325 31.0352 6.81645 30.5922 6.56005C29.9321 6.16505 28.9251 6.26735 28.2734 6.58225C27.4009 6.91145 26.02 8.06035 25.2139 8.95335C24.1991 10.0733 22.4586 11.3173 21.9144 11.178C22.0923 10.7022 23.5624 7.69435 22.0159 6.56745ZM34.202 11.0171C34.6937 10.3366 36.1248 8.51415 36.4737 8.20685C37.6471 7.17455 38.1161 7.62875 38.1567 7.95055C37.0616 9.91185 35.7691 12.1588 34.5539 14.1788C34.5564 14.1716 34.1736 14.7569 34.1736 14.7569C33.6369 15.5763 33.0965 16.279 32.215 16.7692C32.0893 16.8061 31.8821 16.8208 31.7442 16.7179C31.5782 16.6081 31.5127 16.4251 31.5314 16.2348C31.5843 15.6056 32.2249 13.6812 34.202 11.0171ZM20.4515 12.1953C20.4515 12.1953 20.4294 12.2614 20.4186 12.283C20.4158 12.283 19.3165 14.0758 19.3165 14.0758C18.6531 14.9615 17.8248 16.0742 16.7894 16.6082C16.4825 16.7106 16.0582 16.7767 15.842 16.5061C15.3837 15.9571 15.6199 15.1959 15.8118 14.5813L15.8798 14.3617C16.43 12.8689 17.3029 11.5513 18.1527 10.3291C18.1633 10.3219 18.1871 10.3146 18.1957 10.3146C18.1978 10.3219 18.2012 10.3219 18.2026 10.3366C18.7358 11.361 19.7356 11.8365 20.4833 12.0564C20.4878 12.0564 20.4927 12.0637 20.4927 12.0784C20.4928 12.1002 20.4806 12.1297 20.4515 12.1953ZM21.4929 10.0805C21.488 10.0951 21.0033 11.2075 21.0033 11.2075C20.9332 11.266 20.8224 11.2368 20.6954 11.2075L20.4778 11.1707C19.7945 10.9586 19.2791 10.5048 19.1202 9.96325C18.9011 8.90935 19.8014 8.08235 20.198 7.78245C20.5786 7.51875 21.1703 7.37975 21.5139 7.65065C21.7258 7.89955 21.8061 8.22145 21.8061 8.57295C21.8062 9.04845 21.6594 9.58265 21.4929 10.0805ZM53.4469 13.476C53.2031 12.9492 52.6246 12.6125 52.008 12.649C50.0057 12.8321 48.0472 14.4787 47.0188 16.8424C46.4792 18.0574 46.1847 19.0599 45.9916 20.6553C46.6143 19.9383 47.8843 18.7601 49.3255 18.116C49.3255 18.116 49.5216 16.5865 50.5216 15.2252C50.9 14.6615 51.6572 13.7541 52.5075 13.9955C53.2505 14.2444 52.9893 16.301 52.0019 18.2912C51.2713 19.7551 50.1533 21.2192 49.0221 22.2289C48.022 23.0778 46.5423 24.1024 45.2477 23.3121C44.4323 22.8293 44.0164 21.819 44.1042 20.5164C44.4938 16.8207 46.1762 13.6737 48.5837 10.0877C51.0661 6.75775 53.8025 3.34005 57.4888 1.51745C58.2407 1.13695 58.937 1.04915 59.5389 1.28335C59.5389 1.28335 56.0785 3.18615 54.429 6.70645C54.0094 7.59945 53.4258 8.80665 54.0135 9.87525C54.3206 10.4314 54.8658 10.4754 55.3049 10.4461C57.3268 9.97755 58.6331 8.08945 59.7004 6.36245C60.3192 5.05245 60.8692 3.74975 60.8692 2.30065C60.8692 2.12505 60.8601 1.89095 60.8453 1.71515C61.8112 1.20305 63.7921 2.11035 63.7921 2.11035C65.34 2.62285 68.6359 5.14785 69.7477 5.63065C70.29 5.00135 71.1812 4.05005 71.6831 3.57425L70.9566 3.12775C69.7936 2.41785 68.5643 1.74445 67.3544 1.07855C64.6065 -0.421546 62.3697 0.105254 61.2314 0.515154C60.784 0.676054 60.3752 0.815154 60.3752 0.815154C59.5304 -0.106946 58.1448 -0.0193461 57.1239 0.229654C53.4525 1.28345 50.0438 3.85215 46.3893 8.30925C43.7025 11.8003 42.0359 14.8156 41.1476 17.7941C40.4629 19.7993 40.2548 22.7486 41.926 24.4978C43.3469 25.9831 45.231 25.6613 46.5614 25.1273C49.4441 23.7075 52.035 20.6482 53.326 17.1279C53.6376 16.0815 53.9833 14.6032 53.4469 13.476ZM60.0756 2.44715C59.694 6.82365 56.2921 9.39265 55.4503 9.59725C54.9402 9.69955 54.0698 9.47285 54.8469 7.63615C55.9911 5.16225 57.9448 3.06205 60.0408 1.98615C60.0919 2.16915 60.0905 2.28595 60.0756 2.44715ZM80.2554 3.00315C78.4255 4.04255 76.5285 4.71565 74.2323 4.48155C73.596 5.19895 72.9763 5.93805 72.4052 6.69905C75.6281 7.51875 79.0448 5.69645 80.9504 3.96215C82.9663 2.21295 83.9999 0.0102539 83.9999 0.0102539C83.9999 0.0102539 82.4889 1.73725 80.2554 3.00315ZM45.6728 6.64765H43.2724L41.9184 8.84765H44.3183L45.6728 6.64765Z" fill="#E61A27"/>
<path d="M74.2227 23.0547C73.9646 23.2303 73.602 23.0953 73.7375 22.6929C74.0753 21.6683 75.4178 19.5803 75.4178 19.5803L79.1574 12.9477H76.5959C76.4741 13.1477 76.2138 13.6069 76.2138 13.6069C76.0953 13.4095 75.7409 12.9706 75.595 12.8757C74.9692 12.4802 74.0512 12.6672 73.4178 13.0257C70.6639 14.636 68.6546 17.8175 67.0699 20.2986C67.0699 20.2986 65.4018 23.0566 64.4759 23.2617C63.753 23.3203 63.8276 22.3465 63.8589 22.1196C64.1384 20.48 64.7875 18.9213 65.4414 17.5088C66.7716 16.5867 68.2895 15.3792 69.669 14.0546C72.6628 11.1928 75.1866 7.95067 75.5555 7.22617C75.5555 7.22617 75.1562 7.30677 74.6847 7.32127C72.3816 10.5341 67.6684 15.2035 66.2395 15.8986C66.8725 14.376 70.9623 7.10897 74.4425 3.63277L74.9901 3.10567C75.837 2.27867 76.7144 1.42977 77.3982 1.29067C77.4704 1.28337 77.5634 1.29067 77.6437 1.45927C77.6742 2.10317 77.4345 2.57897 77.1595 3.12047L76.7741 3.91097C76.7741 3.91097 77.32 3.80847 77.6786 3.69107C78.0945 2.90837 78.5553 2.02987 78.3854 0.983568C78.3288 0.646868 78.085 0.390768 77.7665 0.332168C76.7283 0.134568 75.5969 0.902768 74.6865 1.52507L74.6498 1.54687C69.9696 5.21347 66.0177 10.4975 62.5626 17.7136C62.3122 17.9036 61.3447 18.1307 61.1803 18.0208C61.5215 17.3184 61.9511 16.3741 62.166 15.3495C62.2032 15.0566 62.2378 14.7568 62.2378 14.4641C62.2378 13.8342 62.0866 13.2416 61.5224 12.832C60.8608 12.5026 60.0431 12.6564 59.4917 12.905C57.022 13.9296 55.1761 16.462 53.844 18.5475C53.1276 19.8725 52.4133 21.2916 52.2155 22.9166C52.0762 24.1898 52.3598 25.0096 53.0838 25.4195C53.8282 25.7998 54.7652 25.4045 55.1333 25.2144C57.6354 23.897 59.3837 21.2552 60.7617 18.84C60.8165 18.8328 61.5689 18.811 62.1381 18.6644C62.1456 18.6644 62.1488 18.6644 62.1614 18.672C62.1288 18.7814 61.8347 19.6599 61.8347 19.6599C60.9613 22.2211 60.5574 23.9631 61.3824 24.9949C62.5613 26.4513 64.513 24.9439 66.1007 22.9529C65.7599 25.3386 66.9963 25.7121 67.9389 25.5293C69.0216 25.2367 70.2281 24.0801 70.788 23.4875C70.6082 24.1826 70.657 25.427 71.642 25.5512C72.317 25.676 72.8223 25.3088 73.4068 24.994C75.5036 23.8522 78.0137 20.0475 78.6654 18.9475H77.8109C76.8844 20.3478 75.7055 22.1834 74.2227 23.0547ZM55.401 22.7999C55.268 22.6022 55.2239 22.3862 55.2195 22.1526C55.194 20.7175 56.738 18.1477 57.8277 16.7477H57.83C58.2866 17.7477 59.3208 18.3905 59.9451 18.6614C59.1698 20.3887 56.5105 24.0879 55.401 22.7999ZM60.3828 17.8892C60.309 17.9408 59.0049 17.5014 58.7528 16.2939C58.539 15.2543 59.2549 14.442 59.9475 14.0326C60.2448 13.7982 60.6926 13.718 61.0211 13.8346C61.326 14.0399 61.4086 14.4061 61.4086 14.8006C61.4086 15.0426 61.3765 15.2912 61.3482 15.518L61.342 15.5694C61.1235 16.3807 60.8011 17.1605 60.3828 17.8892ZM70.8424 22.3389C70.8413 22.3389 70.5949 22.5584 70.5949 22.5584C70.2431 22.873 69.8811 23.2096 69.4441 23.0412C69.3234 22.9974 69.2385 22.8365 69.2181 22.7117C69.1982 21.8115 69.6035 20.9774 69.9967 20.1651L70.0975 19.9528C71.2283 18.0647 72.5427 15.8399 74.4731 14.2959C74.7983 14.0612 75.1513 13.864 75.5239 14.0178C75.6096 14.0982 75.7094 14.2373 75.7094 14.3762C75.7094 14.4203 75.6702 14.5373 75.6477 14.5738C75.1085 15.4451 74.5952 16.3597 74.0959 17.2379C73.1201 18.9724 72.1078 20.7651 70.8424 22.3389Z" fill="#E61A27"/>
</g>
<defs>
<filter id="filter0_d_1922_2279" x="0" y="0" width="87.9999" height="34.1953" filterUnits="userSpaceOnUse" color-interpolation-filters="sRGB">
<feFlood flood-opacity="0" result="BackgroundImageFix"/>
<feColorMatrix in="SourceAlpha" type="matrix" values="0 0 0 0 0 0 0 0 0 0 0 0 0 0 0 0 0 0 127 0" result="hardAlpha"/>
<feOffset dy="4"/>
<feGaussianBlur stdDeviation="2"/>
<feComposite in2="hardAlpha" operator="out"/>
<feColorMatrix type="matrix" values="0 0 0 0 0 0 0 0 0 0 0 0 0 0 0 0 0 0 0.25 0"/>
<feBlend mode="normal" in2="BackgroundImageFix" result="effect1_dropShadow_1922_2279"/>
<feBlend mode="normal" in="SourceGraphic" in2="effect1_dropShadow_1922_2279" result="shape"/>
</filter>
</defs>
</svg>
